<mxfile host="app.diagrams.net" modified="2021-08-06T12:52:32.712Z" agent="5.0 (X11)" etag="2yJcQUZIIOe6w9jjfZ_h" version="14.9.4" type="github">
  <diagram id="o6FBnnh21fnTWob_zk2f" name="Page-1">
    <mxGraphModel dx="1350" dy="764" grid="1" gridSize="10" guides="1" tooltips="1" connect="1" arrows="1" fold="1" page="1" pageScale="1" pageWidth="1169" pageHeight="827" math="0" shadow="0">
      <root>
        <mxCell id="0" />
        <mxCell id="1" parent="0" />
        <mxCell id="WA45sJLJeDe34Si-K1UF-1" value="" style="rounded=0;whiteSpace=wrap;html=1;fillColor=#bac8d3;strokeColor=#23445d;" vertex="1" parent="1">
          <mxGeometry x="10" y="60" width="1150" height="450" as="geometry" />
        </mxCell>
        <mxCell id="WA45sJLJeDe34Si-K1UF-2" value="QML / JavaScript" style="text;html=1;strokeColor=none;fillColor=none;align=center;verticalAlign=middle;whiteSpace=wrap;rounded=0;" vertex="1" parent="1">
          <mxGeometry x="50" y="70" width="110" height="20" as="geometry" />
        </mxCell>
        <mxCell id="WA45sJLJeDe34Si-K1UF-3" value="Схема GUI LaserSTUDIO2" style="text;html=1;strokeColor=none;fillColor=none;align=center;verticalAlign=middle;whiteSpace=wrap;rounded=0;fontStyle=1;fontSize=20;" vertex="1" parent="1">
          <mxGeometry x="280" y="20" width="570" height="20" as="geometry" />
        </mxCell>
        <mxCell id="WA45sJLJeDe34Si-K1UF-5" value="JSON" style="shape=flexArrow;endArrow=classic;html=1;fontSize=20;" edge="1" parent="1">
          <mxGeometry width="50" height="50" relative="1" as="geometry">
            <mxPoint x="350" y="590" as="sourcePoint" />
            <mxPoint x="350" y="520" as="targetPoint" />
            <Array as="points" />
          </mxGeometry>
        </mxCell>
        <mxCell id="WA45sJLJeDe34Si-K1UF-6" value="DeviceCAN" style="rounded=0;whiteSpace=wrap;html=1;fontSize=20;gradientColor=#97d077;fillColor=#d5e8d4;strokeColor=#82b366;" vertex="1" parent="1">
          <mxGeometry x="70" y="450" width="1030" height="60" as="geometry" />
        </mxCell>
        <mxCell id="WA45sJLJeDe34Si-K1UF-9" value="ParamFiles" style="rounded=0;whiteSpace=wrap;html=1;fontSize=20;gradientColor=#ffd966;fillColor=#fff2cc;strokeColor=#d6b656;" vertex="1" parent="1">
          <mxGeometry x="960" y="60" width="180" height="40" as="geometry" />
        </mxCell>
        <mxCell id="WA45sJLJeDe34Si-K1UF-11" value="&lt;div style=&quot;font-size: 10px&quot; align=&quot;left&quot;&gt;&lt;pre&gt;&lt;font style=&quot;font-size: 10px&quot;&gt;[&lt;br&gt;&lt;/font&gt;&lt;font style=&quot;font-size: 10px&quot;&gt;&lt;span class=&quot;pl-s&quot;&gt;&lt;span class=&quot;pl-pds&quot;&gt;  &quot;&lt;/span&gt;PCIe 0&lt;span class=&quot;pl-pds&quot;&gt;&quot;&lt;/span&gt;&lt;/span&gt;,&lt;/font&gt;&lt;font style=&quot;font-size: 10px&quot;&gt;&lt;br&gt;&lt;font style=&quot;font-size: 10px&quot;&gt;  &lt;span class=&quot;pl-s&quot;&gt;&lt;span class=&quot;pl-pds&quot;&gt;&quot;&lt;/span&gt;PCIe 1&lt;span class=&quot;pl-pds&quot;&gt;&quot;&lt;/span&gt;&lt;/span&gt;&lt;br&gt;]&lt;/font&gt;&lt;/font&gt;&lt;/pre&gt;&lt;/div&gt;" style="text;html=1;strokeColor=#9673a6;fillColor=#e1d5e7;align=left;verticalAlign=middle;whiteSpace=wrap;rounded=0;fontSize=20;" vertex="1" parent="1">
          <mxGeometry x="50" y="660" width="90" height="60" as="geometry" />
        </mxCell>
        <mxCell id="WA45sJLJeDe34Si-K1UF-13" value="" style="shape=curlyBracket;whiteSpace=wrap;html=1;rounded=1;flipH=1;fontSize=20;rotation=-90;" vertex="1" parent="1">
          <mxGeometry x="340" y="310" width="20" height="590" as="geometry" />
        </mxCell>
        <mxCell id="WA45sJLJeDe34Si-K1UF-14" value="&lt;font style=&quot;font-size: 14px&quot;&gt;о каналах&lt;/font&gt;" style="text;html=1;strokeColor=none;fillColor=none;align=center;verticalAlign=middle;whiteSpace=wrap;rounded=0;fontSize=14;" vertex="1" parent="1">
          <mxGeometry x="40" y="600" width="95" height="50" as="geometry" />
        </mxCell>
        <mxCell id="WA45sJLJeDe34Si-K1UF-16" value="&lt;pre style=&quot;font-size: 11px&quot;&gt;&lt;font style=&quot;font-size: 11px&quot;&gt;{&lt;br&gt;    &lt;span class=&quot;pl-s&quot;&gt;&lt;span class=&quot;pl-pds&quot;&gt;&quot;&lt;/span&gt;board&lt;span class=&quot;pl-pds&quot;&gt;&quot;&lt;/span&gt;&lt;/span&gt;: &lt;span class=&quot;pl-s&quot;&gt;&lt;span class=&quot;pl-pds&quot;&gt;&quot;&lt;/span&gt;Power&lt;span class=&quot;pl-pds&quot;&gt;&quot;&lt;/span&gt;&lt;/span&gt;,&lt;br&gt;    &lt;span class=&quot;pl-s&quot;&gt;&lt;span class=&quot;pl-pds&quot;&gt;&quot;&lt;/span&gt;status&lt;span class=&quot;pl-pds&quot;&gt;&quot;&lt;/span&gt;&lt;/span&gt;: {&lt;br&gt;        &lt;span class=&quot;pl-s&quot;&gt;&lt;span class=&quot;pl-pds&quot;&gt;&quot;&lt;/span&gt;axilightenb&lt;span class=&quot;pl-pds&quot;&gt;&quot;&lt;/span&gt;&lt;/span&gt;: &lt;span class=&quot;pl-c1&quot;&gt;true&lt;/span&gt;,&lt;br&gt;        &lt;span class=&quot;pl-s&quot;&gt;&lt;span class=&quot;pl-pds&quot;&gt;&quot;&lt;/span&gt;on&lt;span class=&quot;pl-pds&quot;&gt;&quot;&lt;/span&gt;&lt;/span&gt;: &lt;span class=&quot;pl-c1&quot;&gt;true&lt;/span&gt;,&lt;br&gt;&lt;span class=&quot;pl-c1&quot;&gt;&lt;/span&gt;&lt;span style=&quot;white-space: pre&quot;&gt;	&lt;/span&gt;...&lt;br&gt;    }&lt;br&gt;}&lt;/font&gt;&lt;/pre&gt;" style="text;html=1;strokeColor=#9673a6;fillColor=#e1d5e7;align=left;verticalAlign=middle;whiteSpace=wrap;rounded=0;fontSize=20;" vertex="1" parent="1">
          <mxGeometry x="160" y="660" width="190" height="130" as="geometry" />
        </mxCell>
        <mxCell id="WA45sJLJeDe34Si-K1UF-17" value="Сообщения от плат:&lt;br&gt;status, settings, params" style="text;html=1;strokeColor=none;fillColor=none;align=center;verticalAlign=middle;whiteSpace=wrap;rounded=0;fontSize=14;" vertex="1" parent="1">
          <mxGeometry x="160" y="610" width="186.25" height="50" as="geometry" />
        </mxCell>
        <mxCell id="WA45sJLJeDe34Si-K1UF-18" value="&lt;div style=&quot;font-size: 10px&quot; align=&quot;left&quot;&gt;&lt;pre&gt;&lt;font style=&quot;font-size: 10px&quot;&gt;{&lt;br&gt;    &lt;span class=&quot;pl-s&quot;&gt;&lt;span class=&quot;pl-pds&quot;&gt;&quot;&lt;/span&gt;name&lt;span class=&quot;pl-pds&quot;&gt;&quot;&lt;/span&gt;&lt;/span&gt; : &lt;span class=&quot;pl-s&quot;&gt;&lt;span class=&quot;pl-pds&quot;&gt;&quot;&lt;/span&gt;UnableToOpen&lt;span class=&quot;pl-pds&quot;&gt;&quot;&lt;/span&gt;&lt;/span&gt;,&lt;br&gt;    &lt;span class=&quot;pl-s&quot;&gt;&lt;span class=&quot;pl-pds&quot;&gt;&quot;&lt;/span&gt;message&lt;span class=&quot;pl-pds&quot;&gt;&quot;&lt;/span&gt;&lt;/span&gt; : &lt;span class=&quot;pl-s&quot;&gt;&lt;span class=&quot;pl-pds&quot;&gt;&quot;&lt;/span&gt;Marathon invalid parameter&lt;span class=&quot;pl-pds&quot;&gt;&quot;&lt;/span&gt;&lt;/span&gt;    &lt;br&gt;}&lt;/font&gt;&lt;/pre&gt;&lt;/div&gt;" style="text;html=1;strokeColor=#9673a6;fillColor=#e1d5e7;align=left;verticalAlign=middle;whiteSpace=wrap;rounded=0;fontSize=20;" vertex="1" parent="1">
          <mxGeometry x="370" y="670" width="266.25" height="60" as="geometry" />
        </mxCell>
        <mxCell id="WA45sJLJeDe34Si-K1UF-19" value="об ошибках" style="text;html=1;strokeColor=none;fillColor=none;align=center;verticalAlign=middle;whiteSpace=wrap;rounded=0;fontSize=14;" vertex="1" parent="1">
          <mxGeometry x="450" y="610" width="95" height="50" as="geometry" />
        </mxCell>
        <mxCell id="WA45sJLJeDe34Si-K1UF-20" value="JSON" style="shape=flexArrow;endArrow=classic;html=1;fontSize=20;" edge="1" parent="1">
          <mxGeometry width="50" height="50" relative="1" as="geometry">
            <mxPoint x="809.5" y="520" as="sourcePoint" />
            <mxPoint x="809.5" y="590" as="targetPoint" />
            <Array as="points" />
          </mxGeometry>
        </mxCell>
        <mxCell id="WA45sJLJeDe34Si-K1UF-21" value="&lt;pre style=&quot;font-size: 10px&quot;&gt;&lt;font style=&quot;font-size: 10px&quot;&gt;{&lt;br&gt;    &lt;span class=&quot;pl-s&quot;&gt;&lt;span class=&quot;pl-pds&quot;&gt;&quot;&lt;/span&gt;board&lt;span class=&quot;pl-pds&quot;&gt;&quot;&lt;/span&gt;&lt;/span&gt; : &lt;span class=&quot;pl-s&quot;&gt;&lt;span class=&quot;pl-pds&quot;&gt;&quot;&lt;/span&gt;Power&lt;span class=&quot;pl-pds&quot;&gt;&quot;&lt;/span&gt;&lt;/span&gt;,&lt;br&gt;    &lt;span class=&quot;pl-s&quot;&gt;&lt;span class=&quot;pl-pds&quot;&gt;&quot;&lt;/span&gt;command&lt;span class=&quot;pl-pds&quot;&gt;&quot;&lt;/span&gt;&lt;/span&gt; : {&lt;br&gt;        &lt;span class=&quot;pl-s&quot;&gt;&lt;span class=&quot;pl-pds&quot;&gt;&quot;&lt;/span&gt;extlighton&lt;span class=&quot;pl-pds&quot;&gt;&quot;&lt;/span&gt;&lt;/span&gt; : &lt;span class=&quot;pl-c1&quot;&gt;false&lt;/span&gt;&lt;br&gt;        }&lt;br&gt;}&lt;/font&gt;&lt;/pre&gt;" style="text;html=1;strokeColor=#9673a6;fillColor=#e1d5e7;align=left;verticalAlign=middle;whiteSpace=wrap;rounded=0;fontSize=20;" vertex="1" parent="1">
          <mxGeometry x="720.01" y="660" width="180" height="80" as="geometry" />
        </mxCell>
        <mxCell id="WA45sJLJeDe34Si-K1UF-22" value="Сообщения для плат:&lt;br&gt;status, settings, command, params" style="text;html=1;strokeColor=none;fillColor=none;align=center;verticalAlign=middle;whiteSpace=wrap;rounded=0;fontSize=14;" vertex="1" parent="1">
          <mxGeometry x="716.88" y="600" width="186.25" height="50" as="geometry" />
        </mxCell>
        <mxCell id="WA45sJLJeDe34Si-K1UF-23" value="paramfiles.h" style="rounded=0;whiteSpace=wrap;html=1;fontSize=20;fillColor=#fff2cc;strokeColor=#d6b656;strokeWidth=3;" vertex="1" parent="1">
          <mxGeometry x="960" y="20" width="180" height="40" as="geometry" />
        </mxCell>
        <mxCell id="WA45sJLJeDe34Si-K1UF-44" value="params" style="edgeStyle=orthogonalEdgeStyle;rounded=0;orthogonalLoop=1;jettySize=auto;html=1;fontSize=14;" edge="1" parent="1" source="WA45sJLJeDe34Si-K1UF-24" target="WA45sJLJeDe34Si-K1UF-32">
          <mxGeometry relative="1" as="geometry" />
        </mxCell>
        <mxCell id="WA45sJLJeDe34Si-K1UF-24" value="Панели значений параметров" style="rounded=0;whiteSpace=wrap;html=1;fontSize=14;fillColor=#f8cecc;strokeColor=#b85450;" vertex="1" parent="1">
          <mxGeometry x="450" y="270" width="215" height="70" as="geometry" />
        </mxCell>
        <mxCell id="WA45sJLJeDe34Si-K1UF-27" value="&lt;span style=&quot;font-weight: 600 ; color: #00677c&quot;&gt;getChannels&lt;/span&gt;&lt;span style=&quot;font-weight: 600 ; color: #00677c&quot;&gt;&lt;br&gt;openChannel&lt;br&gt;&lt;/span&gt;&lt;span style=&quot;font-weight: 600 ; color: #00677c&quot;&gt;changeChannel&lt;/span&gt;" style="text;html=1;strokeColor=#6c8ebf;fillColor=#dae8fc;align=center;verticalAlign=middle;whiteSpace=wrap;rounded=0;fontSize=14;" vertex="1" parent="1">
          <mxGeometry x="940" y="470" width="130" height="70" as="geometry" />
        </mxCell>
        <mxCell id="WA45sJLJeDe34Si-K1UF-29" value="string" style="shape=flexArrow;endArrow=classic;html=1;fontSize=20;" edge="1" parent="1">
          <mxGeometry width="50" height="50" relative="1" as="geometry">
            <mxPoint x="1004.5" y="550" as="sourcePoint" />
            <mxPoint x="1004.5" y="620" as="targetPoint" />
            <Array as="points" />
          </mxGeometry>
        </mxCell>
        <mxCell id="WA45sJLJeDe34Si-K1UF-32" value="&lt;span style=&quot;font-weight: 600 ; color: #00677c&quot;&gt;writeToCAN&lt;/span&gt;" style="rounded=0;whiteSpace=wrap;html=1;fontSize=14;fillColor=#dae8fc;strokeColor=#6c8ebf;" vertex="1" parent="1">
          <mxGeometry x="758.13" y="470" width="110" height="40" as="geometry" />
        </mxCell>
        <mxCell id="WA45sJLJeDe34Si-K1UF-43" value="status,&lt;br&gt;settings, &lt;br&gt;command" style="edgeStyle=orthogonalEdgeStyle;rounded=0;orthogonalLoop=1;jettySize=auto;html=1;entryX=0.75;entryY=0;entryDx=0;entryDy=0;fontSize=14;exitX=1;exitY=0.75;exitDx=0;exitDy=0;" edge="1" parent="1" source="WA45sJLJeDe34Si-K1UF-33" target="WA45sJLJeDe34Si-K1UF-32">
          <mxGeometry relative="1" as="geometry" />
        </mxCell>
        <mxCell id="WA45sJLJeDe34Si-K1UF-33" value="Панели инструментов" style="rounded=0;whiteSpace=wrap;html=1;fontSize=14;fillColor=#f8cecc;strokeColor=#b85450;" vertex="1" parent="1">
          <mxGeometry x="427.5" y="90" width="215" height="60" as="geometry" />
        </mxCell>
        <mxCell id="WA45sJLJeDe34Si-K1UF-34" value="changeChannel" style="endArrow=classic;html=1;fontSize=14;exitX=0.998;exitY=0.133;exitDx=0;exitDy=0;entryX=0.75;entryY=0;entryDx=0;entryDy=0;exitPerimeter=0;" edge="1" parent="1" source="WA45sJLJeDe34Si-K1UF-33" target="WA45sJLJeDe34Si-K1UF-27">
          <mxGeometry width="50" height="50" relative="1" as="geometry">
            <mxPoint x="770" y="270" as="sourcePoint" />
            <mxPoint x="820" y="220" as="targetPoint" />
            <Array as="points">
              <mxPoint x="1038" y="140" />
            </Array>
          </mxGeometry>
        </mxCell>
        <mxCell id="WA45sJLJeDe34Si-K1UF-41" value="&lt;font style=&quot;font-size: 13px&quot;&gt;status,&lt;br&gt;&lt;/font&gt;&lt;pre style=&quot;margin: 0px ; text-indent: 0px ; font-size: 13px&quot;&gt;&lt;font style=&quot;font-size: 13px&quot;&gt;settings&lt;/font&gt;&lt;/pre&gt;" style="edgeStyle=orthogonalEdgeStyle;rounded=0;orthogonalLoop=1;jettySize=auto;html=1;entryX=0;entryY=0.5;entryDx=0;entryDy=0;fontSize=14;exitX=0.25;exitY=0;exitDx=0;exitDy=0;" edge="1" parent="1" source="WA45sJLJeDe34Si-K1UF-35" target="WA45sJLJeDe34Si-K1UF-33">
          <mxGeometry relative="1" as="geometry" />
        </mxCell>
        <mxCell id="WA45sJLJeDe34Si-K1UF-42" value="params" style="edgeStyle=orthogonalEdgeStyle;rounded=0;orthogonalLoop=1;jettySize=auto;html=1;entryX=0;entryY=0.5;entryDx=0;entryDy=0;fontSize=14;exitX=0.5;exitY=0;exitDx=0;exitDy=0;" edge="1" parent="1" source="WA45sJLJeDe34Si-K1UF-35" target="WA45sJLJeDe34Si-K1UF-24">
          <mxGeometry relative="1" as="geometry" />
        </mxCell>
        <mxCell id="WA45sJLJeDe34Si-K1UF-35" value="&lt;span style=&quot;font-style: italic&quot;&gt;parseBoardMsg&lt;/span&gt;" style="rounded=0;whiteSpace=wrap;html=1;fontSize=14;fillColor=#dae8fc;strokeColor=#6c8ebf;" vertex="1" parent="1">
          <mxGeometry x="210" y="400" width="210" height="50" as="geometry" />
        </mxCell>
        <mxCell id="WA45sJLJeDe34Si-K1UF-36" value="msg" style="endArrow=classic;html=1;fontSize=14;" edge="1" parent="1" target="WA45sJLJeDe34Si-K1UF-35">
          <mxGeometry width="50" height="50" relative="1" as="geometry">
            <mxPoint x="350" y="520" as="sourcePoint" />
            <mxPoint x="560" y="400" as="targetPoint" />
          </mxGeometry>
        </mxCell>
        <mxCell id="WA45sJLJeDe34Si-K1UF-37" value="список каналов" style="endArrow=classic;html=1;fontSize=14;entryX=0.05;entryY=0;entryDx=0;entryDy=0;entryPerimeter=0;" edge="1" parent="1" target="WA45sJLJeDe34Si-K1UF-6">
          <mxGeometry width="50" height="50" relative="1" as="geometry">
            <mxPoint x="350" y="510" as="sourcePoint" />
            <mxPoint x="560" y="400" as="targetPoint" />
          </mxGeometry>
        </mxCell>
        <mxCell id="WA45sJLJeDe34Si-K1UF-38" value="список каналов" style="endArrow=classic;html=1;fontSize=14;entryX=0;entryY=0.25;entryDx=0;entryDy=0;exitX=0.049;exitY=0;exitDx=0;exitDy=0;exitPerimeter=0;" edge="1" parent="1" source="WA45sJLJeDe34Si-K1UF-6" target="WA45sJLJeDe34Si-K1UF-33">
          <mxGeometry width="50" height="50" relative="1" as="geometry">
            <mxPoint x="180" y="450" as="sourcePoint" />
            <mxPoint x="130.00000000000009" y="300" as="targetPoint" />
            <Array as="points">
              <mxPoint x="120" y="105" />
            </Array>
          </mxGeometry>
        </mxCell>
        <mxCell id="WA45sJLJeDe34Si-K1UF-39" value="ошибки CAN" style="endArrow=classic;html=1;fontSize=14;entryX=0.415;entryY=0;entryDx=0;entryDy=0;entryPerimeter=0;" edge="1" parent="1" target="WA45sJLJeDe34Si-K1UF-6">
          <mxGeometry width="50" height="50" relative="1" as="geometry">
            <mxPoint x="350" y="510" as="sourcePoint" />
            <mxPoint x="188.1500000000001" y="458.02" as="targetPoint" />
          </mxGeometry>
        </mxCell>
        <mxCell id="WA45sJLJeDe34Si-K1UF-40" value="вывод ошибки" style="rounded=0;whiteSpace=wrap;html=1;fontSize=14;fillColor=#dae8fc;strokeColor=#6c8ebf;" vertex="1" parent="1">
          <mxGeometry x="480" y="410" width="110" height="40" as="geometry" />
        </mxCell>
        <mxCell id="WA45sJLJeDe34Si-K1UF-47" value="&lt;span style=&quot;font-weight: 600 ; color: #00677c&quot;&gt;ParamFiles&lt;/span&gt;" style="edgeStyle=orthogonalEdgeStyle;rounded=0;orthogonalLoop=1;jettySize=auto;html=1;entryX=0.778;entryY=0.75;entryDx=0;entryDy=0;entryPerimeter=0;fontSize=14;jumpStyle=none;shadow=1;sketch=1;startArrow=classic;startFill=1;" edge="1" parent="1" source="WA45sJLJeDe34Si-K1UF-46" target="WA45sJLJeDe34Si-K1UF-9">
          <mxGeometry relative="1" as="geometry" />
        </mxCell>
        <mxCell id="WA45sJLJeDe34Si-K1UF-46" value="Панели наборов параметров" style="rounded=0;whiteSpace=wrap;html=1;fontSize=14;fillColor=#f8cecc;strokeColor=#b85450;" vertex="1" parent="1">
          <mxGeometry x="450" y="200" width="215" height="70" as="geometry" />
        </mxCell>
        <mxCell id="WA45sJLJeDe34Si-K1UF-48" value="&lt;b&gt;DeviceCAN.dll&lt;/b&gt;" style="rounded=0;whiteSpace=wrap;html=1;fontSize=14;fillColor=#d5e8d4;strokeColor=#82b366;gradientColor=#97d077;strokeWidth=3;" vertex="1" parent="1">
          <mxGeometry x="15" y="800" width="1145" height="20" as="geometry" />
        </mxCell>
      </root>
    </mxGraphModel>
  </diagram>
</mxfile>
